<svg width="18" height="22" viewBox="0 0 18 22" fill="none" xmlns="http://www.w3.org/2000/svg">
<path d="M0 17.2006L1.45102 17.9392L5.01227 10.8428L1.45102 3.77246L0 4.51124V17.2006Z" fill="#8C3123"/>
<path d="M1.45093 3.77344L8.99586 5.59363L12.5571 10.8698L8.99608 16.0932L1.45115 17.9399L1.45093 3.77344Z" fill="#E05243"/>
<path d="M17.8336 11.0281L16.5408 3.77344L8.99609 5.59363V16.0932L16.541 17.9399L17.8336 11.0281Z" fill="#8C3123"/>
<path d="M16.541 17.9392V3.77246L17.992 4.51124V17.2006L16.541 17.9392Z" fill="#E05243"/>
<path d="M11.6078 10.8697L8.99601 8.12598L5.69849 8.5482V13.1913L8.99601 13.6133L11.6078 10.8697Z" fill="#8C3123"/>
<path d="M8.99601 0L12.2938 6.30502L8.99601 6.91182L5.69849 6.30524L8.99601 0Z" fill="#5E1F18"/>
<path d="M8.99601 21.738L12.2938 15.433L8.99601 14.8262L5.69849 15.4328L8.99601 21.738Z" fill="#F2B0A9"/>
<path d="M12.2936 1.66235V6.30545L8.99585 5.48776V0L12.2936 1.66235Z" fill="#E05243"/>
<path d="M5.69824 1.66235V6.30545L8.9962 5.48776V0L5.69824 1.66235Z" fill="#8C3123"/>
<path d="M8.99585 16.2513V21.7388L12.2936 20.0767V15.4336L8.99585 16.2513Z" fill="#E05243"/>
<path d="M8.99601 16.2513V21.7388L5.69849 20.0767V15.4336L8.99601 16.2513Z" fill="#8C3123"/>
<path d="M12.2936 8.54786V13.191L8.99585 13.613V8.12586L12.2936 8.54786Z" fill="#E05243"/>
</svg>
