<svg width="20" height="20" viewBox="0 0 20 20" fill="none" xmlns="http://www.w3.org/2000/svg">
<path d="M6.94533 1.36334H12.3699L6.73867 18.0481C6.68079 18.2196 6.5706 18.3686 6.42362 18.4741C6.27663 18.5796 6.10025 18.6364 5.91929 18.6365H1.69763C1.56052 18.6365 1.42539 18.6038 1.3034 18.5413C1.18141 18.4787 1.07607 18.388 0.996101 18.2766C0.91613 18.1652 0.863826 18.0364 0.843514 17.9009C0.823202 17.7653 0.835467 17.6268 0.879293 17.4969L6.12575 1.95167C6.1836 1.78015 6.29381 1.6311 6.44084 1.52552C6.58787 1.41994 6.76432 1.36335 6.94533 1.36334Z" fill="url(#paint0_linear_553_21500)"/>
<path d="M14.828 12.5544H6.22596C6.14599 12.5543 6.06784 12.5783 6.0017 12.6233C5.93556 12.6682 5.88449 12.732 5.85515 12.8064C5.82581 12.8808 5.81956 12.9623 5.8372 13.0404C5.85485 13.1184 5.89558 13.1892 5.95408 13.2438L11.4816 18.4029C11.6425 18.553 11.8544 18.6365 12.0745 18.6365H16.9453L14.828 12.5544Z" fill="#0078D4"/>
<path d="M6.94545 1.36333C6.76246 1.36263 6.58404 1.42046 6.43625 1.52837C6.28846 1.63628 6.17905 1.78861 6.12399 1.96313L0.885869 17.4827C0.839094 17.6131 0.824409 17.7528 0.843057 17.8901C0.861704 18.0273 0.913136 18.1581 0.993 18.2712C1.07286 18.3844 1.17881 18.4767 1.30188 18.5403C1.42495 18.6038 1.56152 18.6368 1.70004 18.6365H6.03066C6.19195 18.6076 6.3427 18.5365 6.46752 18.4304C6.59233 18.3242 6.68673 18.1869 6.74108 18.0323L7.78566 14.9537L11.5169 18.434C11.6733 18.5633 11.8694 18.6348 12.0723 18.6365H16.925L14.7967 12.5544L8.59233 12.5558L12.3896 1.36333H6.94545Z" fill="url(#paint1_linear_553_21500)"/>
<path d="M13.874 1.95083C13.8162 1.77958 13.7062 1.63078 13.5593 1.52538C13.4125 1.41999 13.2364 1.36331 13.0556 1.36333H7.01001C7.19073 1.36334 7.36689 1.42003 7.51369 1.52542C7.6605 1.63082 7.77055 1.7796 7.82834 1.95083L13.075 17.4967C13.1189 17.6266 13.1312 17.7651 13.1109 17.9007C13.0906 18.0364 13.0383 18.1652 12.9583 18.2766C12.8783 18.388 12.773 18.4788 12.651 18.5414C12.529 18.604 12.3938 18.6367 12.2567 18.6367H18.3025C18.4396 18.6366 18.5748 18.6039 18.6967 18.5413C18.8187 18.4787 18.924 18.3879 19.004 18.2765C19.0839 18.1651 19.1362 18.0363 19.1565 17.9007C19.1768 17.7651 19.1645 17.6266 19.1206 17.4967L13.874 1.95083Z" fill="url(#paint2_linear_553_21500)"/>
<defs>
<linearGradient id="paint0_linear_553_21500" x1="8.92242" y1="2.64334" x2="3.28888" y2="19.2863" gradientUnits="userSpaceOnUse">
<stop stop-color="#114A8B"/>
<stop offset="1" stop-color="#0669BC"/>
</linearGradient>
<linearGradient id="paint1_linear_553_21500" x1="10.6823" y1="10.3994" x2="9.3792" y2="10.84" gradientUnits="userSpaceOnUse">
<stop stop-opacity="0.3"/>
<stop offset="0.071" stop-opacity="0.2"/>
<stop offset="0.321" stop-opacity="0.1"/>
<stop offset="0.623" stop-opacity="0.05"/>
<stop offset="1" stop-opacity="0"/>
</linearGradient>
<linearGradient id="paint2_linear_553_21500" x1="9.96563" y1="2.15791" x2="16.1496" y2="18.6331" gradientUnits="userSpaceOnUse">
<stop stop-color="#3CCBF4"/>
<stop offset="1" stop-color="#2892DF"/>
</linearGradient>
</defs>
</svg>
